<mxfile host="app.diagrams.net" modified="2023-05-21T14:23:56.558Z" agent="Mozilla/5.0 (Windows NT 10.0; Win64; x64) AppleWebKit/537.36 (KHTML, like Gecko) Chrome/113.0.0.0 Safari/537.36" etag="P1ALITGUE8vrRuqeAIPw" version="21.1.8" type="device">
  <diagram name="Page-1" id="h4CPZFWKMf8hVQ_h-iiV">
    <mxGraphModel dx="1079" dy="788" grid="1" gridSize="10" guides="1" tooltips="1" connect="1" arrows="1" fold="1" page="1" pageScale="1" pageWidth="850" pageHeight="1100" math="0" shadow="0">
      <root>
        <mxCell id="0" />
        <mxCell id="1" parent="0" />
        <mxCell id="0RXXMSjrEjwtUuzFlwJg-1" value="Admin" style="shape=umlActor;verticalLabelPosition=bottom;verticalAlign=top;html=1;outlineConnect=0;" vertex="1" parent="1">
          <mxGeometry x="130" y="270" width="30" height="60" as="geometry" />
        </mxCell>
        <mxCell id="0RXXMSjrEjwtUuzFlwJg-2" value="Employee" style="shape=umlActor;verticalLabelPosition=bottom;verticalAlign=top;html=1;outlineConnect=0;" vertex="1" parent="1">
          <mxGeometry x="650" y="260" width="30" height="60" as="geometry" />
        </mxCell>
        <mxCell id="0RXXMSjrEjwtUuzFlwJg-3" value="log" style="ellipse;whiteSpace=wrap;html=1;" vertex="1" parent="1">
          <mxGeometry x="350" y="170" width="100" height="50" as="geometry" />
        </mxCell>
        <mxCell id="0RXXMSjrEjwtUuzFlwJg-4" value="Manage Employee" style="ellipse;whiteSpace=wrap;html=1;" vertex="1" parent="1">
          <mxGeometry x="260" y="250" width="130" height="70" as="geometry" />
        </mxCell>
        <mxCell id="0RXXMSjrEjwtUuzFlwJg-5" value="Manage Department" style="ellipse;whiteSpace=wrap;html=1;fillColor=#d5e8d4;strokeColor=#82b366;" vertex="1" parent="1">
          <mxGeometry x="260" y="340" width="140" height="60" as="geometry" />
        </mxCell>
        <mxCell id="0RXXMSjrEjwtUuzFlwJg-6" value="View Profile" style="ellipse;whiteSpace=wrap;html=1;" vertex="1" parent="1">
          <mxGeometry x="480" y="380" width="120" height="60" as="geometry" />
        </mxCell>
        <mxCell id="0RXXMSjrEjwtUuzFlwJg-7" value="" style="endArrow=classic;html=1;rounded=0;entryX=0.625;entryY=0;entryDx=0;entryDy=0;entryPerimeter=0;" edge="1" parent="1" source="0RXXMSjrEjwtUuzFlwJg-2" target="0RXXMSjrEjwtUuzFlwJg-6">
          <mxGeometry width="50" height="50" relative="1" as="geometry">
            <mxPoint x="490" y="380" as="sourcePoint" />
            <mxPoint x="540" y="330" as="targetPoint" />
          </mxGeometry>
        </mxCell>
        <mxCell id="0RXXMSjrEjwtUuzFlwJg-8" value="" style="endArrow=classic;html=1;rounded=0;" edge="1" parent="1" target="0RXXMSjrEjwtUuzFlwJg-4">
          <mxGeometry width="50" height="50" relative="1" as="geometry">
            <mxPoint x="160" y="280" as="sourcePoint" />
            <mxPoint x="210" y="230" as="targetPoint" />
          </mxGeometry>
        </mxCell>
        <mxCell id="0RXXMSjrEjwtUuzFlwJg-9" value="" style="endArrow=classic;html=1;rounded=0;entryX=0.014;entryY=0.333;entryDx=0;entryDy=0;entryPerimeter=0;" edge="1" parent="1" source="0RXXMSjrEjwtUuzFlwJg-1" target="0RXXMSjrEjwtUuzFlwJg-5">
          <mxGeometry width="50" height="50" relative="1" as="geometry">
            <mxPoint x="220" y="420" as="sourcePoint" />
            <mxPoint x="270" y="370" as="targetPoint" />
          </mxGeometry>
        </mxCell>
        <mxCell id="0RXXMSjrEjwtUuzFlwJg-10" value="List Employee" style="ellipse;whiteSpace=wrap;html=1;" vertex="1" parent="1">
          <mxGeometry x="260" y="420" width="140" height="60" as="geometry" />
        </mxCell>
        <mxCell id="0RXXMSjrEjwtUuzFlwJg-11" value="" style="endArrow=classic;html=1;rounded=0;exitX=1;exitY=1;exitDx=0;exitDy=0;exitPerimeter=0;" edge="1" parent="1" source="0RXXMSjrEjwtUuzFlwJg-1">
          <mxGeometry width="50" height="50" relative="1" as="geometry">
            <mxPoint x="200" y="500" as="sourcePoint" />
            <mxPoint x="250" y="450" as="targetPoint" />
          </mxGeometry>
        </mxCell>
        <mxCell id="0RXXMSjrEjwtUuzFlwJg-12" value="" style="endArrow=classic;html=1;rounded=0;entryX=0;entryY=0.5;entryDx=0;entryDy=0;" edge="1" parent="1" target="0RXXMSjrEjwtUuzFlwJg-3">
          <mxGeometry width="50" height="50" relative="1" as="geometry">
            <mxPoint x="160" y="270" as="sourcePoint" />
            <mxPoint x="210" y="220" as="targetPoint" />
          </mxGeometry>
        </mxCell>
        <mxCell id="0RXXMSjrEjwtUuzFlwJg-13" value="" style="endArrow=classic;html=1;rounded=0;entryX=1;entryY=0.5;entryDx=0;entryDy=0;" edge="1" parent="1" target="0RXXMSjrEjwtUuzFlwJg-3">
          <mxGeometry width="50" height="50" relative="1" as="geometry">
            <mxPoint x="640" y="280" as="sourcePoint" />
            <mxPoint x="640" y="220" as="targetPoint" />
          </mxGeometry>
        </mxCell>
      </root>
    </mxGraphModel>
  </diagram>
</mxfile>
